<svg
                width="465"
                class="login-photo-svg"
                height="321"
                viewBox="0 0 465 321"
                fill="none"
                xmlns="http://www.w3.org/2000/svg"
              >
                <g clip-path="url(#clip0)">
                  <path
                    class="shape"
                    opacity="0.1"
                    d="M263.018 43.7026C233.212 43.7424 204.522 35.2937 177.081 25.908C149.64 16.5223 122.41 6.0122 93.1579 1.55857C74.3453 -1.30419 52.9529 -1.04104 38.2473 9.35341C24.092 19.3531 19.9929 35.9037 18.0152 51.1944C16.5278 62.6973 15.842 74.7703 21.4124 85.2923C25.2802 92.5968 31.8993 98.6173 36.5646 105.579C52.8492 129.797 43.0561 160.733 27.2301 185.513C19.8095 197.139 11.1169 208.283 5.50664 220.576C-0.103648 232.868 -2.40438 246.807 3.31755 258.94C8.98765 270.965 21.7952 279.693 35.5398 285.654C63.4517 297.783 95.9491 300.382 127.573 301.383C197.576 303.604 267.715 299.074 337.666 294.545C363.552 292.87 389.554 291.184 414.906 286.331C428.982 283.64 443.476 279.645 453.457 270.889C466.125 259.773 468.716 241.624 459.497 228.578C444.038 206.697 403.275 202.57 392.19 178.894C386.077 165.86 391.349 150.913 399.112 138.349C415.763 111.392 444.425 87.246 444.907 57.0953C445.238 36.3902 430.333 16.1913 408.072 7.19239C384.737 -2.23319 352.922 0.190984 336.573 17.7583C319.763 35.8559 289.335 43.6747 263.018 43.7026Z"
                    fill="#aed581 "
                  />
                  <path
                    d="M395.763 257.314C395.763 257.314 390.862 254.08 386.005 256.381C386.005 256.381 387.501 259.259 393.649 258.988L395.763 257.314Z"
                    fill="#009688"
                  />
                  <path
                    d="M396.385 257.485C396.385 257.485 397.876 263.163 394.136 267.026C394.136 267.026 391.887 264.686 394.136 258.952L396.385 257.485Z"
                    fill="#009688"
                  />
                  <path
                    d="M402.477 252.035C402.477 252.035 402.115 247.206 391.209 248.809C391.209 248.809 391.157 251.923 394.985 253.398C398.813 254.873 400.567 253.629 402.477 252.035Z"
                    fill="#009688"
                  />
                  <path
                    d="M403.163 252.003C403.163 252.003 407.773 253.482 403.662 263.709C403.662 263.709 400.619 263.031 400.073 258.96C399.527 254.889 401.146 253.486 403.163 252.003Z"
                    fill="#009688"
                  />
                  <path
                    d="M409.32 245.153C409.32 245.153 409.946 237.206 398.801 238.02C398.801 238.02 398.004 245.197 407.354 247.063L409.32 245.153Z"
                    fill="rgba(255, 255, 255, 0.559)"
                  />
                  <path
                    d="M416.684 236.182C416.684 236.182 415.157 227.175 404.017 229.858C404.017 229.858 403.977 237.645 414.866 238.327L416.684 236.182Z"
                    fill="#009688"
                  />
                  <path
                    d="M422.068 226.908C422.068 226.908 419.508 218.136 408.47 220.759C408.47 220.759 411.098 228.65 421.334 228.526L422.068 226.908Z"
                    fill="rgba(255, 255, 255, 0.559)"
                  />
                  <path
                    d="M427.179 217.849C427.179 217.849 424.679 208.746 414.021 211.469C414.021 211.469 417.578 220.118 426.474 219.388L427.179 217.849Z"
                    fill="rgba(255, 255, 255, 0.559)"
                  />
                  <path
                    d="M430.473 209.245C430.473 209.245 428.551 198.113 418.614 200.577C418.614 200.577 421.501 210.704 429.743 210.867L430.473 209.245Z"
                    fill="rgba(255, 255, 255, 0.559)"
                  />
                  <path
                    d="M433.563 198.85C433.563 198.85 431.255 187.63 421.202 190.876C421.202 190.876 425.142 201.482 432.849 200.385L433.563 198.85Z"
                    fill="rgba(255, 255, 255, 0.559)"
                  />
                  <path
                    d="M435.461 189.177C435.461 189.177 431.797 177.954 424.025 178.257C424.025 178.257 427.77 190.11 434.811 191.414L435.461 189.177Z"
                    fill="rgba(255, 255, 255, 0.559)"
                  />
                  <path
                    d="M436.689 179.736C436.689 179.736 432.702 166.227 426.378 167.268C426.378 167.268 429.137 177.595 436.466 181.841L436.689 179.736Z"
                    fill="rgba(255, 255, 255, 0.559)"
                  />
                  <path
                    d="M437.383 168.472C437.383 168.472 433.643 157.217 427.415 156.766C427.415 156.766 429.959 167.842 437.26 171.399L437.383 168.472Z"
                    fill="rgba(255, 255, 255, 0.559)"
                  />
                  <path
                    d="M438.137 157.962C438.137 157.962 433.475 146.695 429.364 146.439C429.364 146.439 431.39 157.536 437.738 159.812L438.137 157.962Z"
                    fill="rgba(255, 255, 255, 0.559)"
                  />
                  <path
                    d="M438.651 148.186C438.651 148.186 435.784 135.949 431.665 134.933C431.665 134.933 432.227 144.944 438.236 149.103L438.651 148.186Z"
                    fill="rgba(255, 255, 255, 0.559)"
                  />
                  <path
                    d="M440.206 135.379C440.206 135.379 437.192 125.623 433.854 124.135C433.854 124.135 434.512 135.638 439.437 137.763L440.206 135.379Z"
                    fill="rgba(255, 255, 255, 0.559)"
                  />
                  <path
                    d="M441.494 127.006L442.1 109.806C442.1 109.806 435.86 122.772 441.044 130.024L441.494 127.006Z"
                    fill="rgba(255, 255, 255, 0.559)"
                  />
                  <path
                    d="M446.311 109.897C446.311 109.897 450.805 97.3378 451.893 96.6361C451.893 96.6361 443.081 104.786 443.942 115.268L446.311 109.897Z"
                    fill="rgba(255, 255, 255, 0.559)"
                  />
                  <path
                    d="M409.623 245.093C409.623 245.093 417.526 244.06 417.291 255.228C417.291 255.228 410.149 256.392 407.817 247.154L409.623 245.093Z"
                    fill="rgba(255, 255, 255, 0.559)"
                  />
                  <path
                    d="M417.059 235.879C417.059 235.879 426.191 235.851 425.433 247.282C425.433 247.282 417.765 248.653 415.237 238.04L417.059 235.879Z"
                    fill="rgba(255, 255, 255, 0.559)"
                  />
                  <path
                    d="M422.155 227.645C422.155 227.645 430.445 223.758 435.748 233.793C435.748 233.793 428.092 237.031 421.422 229.268L422.155 227.645Z"
                    fill="rgba(255, 255, 255, 0.559)"
                  />
                  <path
                    d="M427.363 217.933C427.363 217.933 435.852 213.798 440.836 223.598C440.836 223.598 431.992 226.645 426.661 219.484L427.363 217.933Z"
                    fill="rgba(255, 255, 255, 0.559)"
                  />
                  <path
                    d="M430.365 209.488C430.365 209.488 438.536 201.685 445.055 209.576C445.055 209.576 436.709 215.999 429.991 211.226L430.365 209.488Z"
                    fill="rgba(255, 255, 255, 0.559)"
                  />
                  <path
                    d="M433.101 198.583C433.101 198.583 441.319 190.609 447.786 198.95C447.786 198.95 438.563 205.501 432.806 200.258L433.101 198.583Z"
                    fill="rgba(255, 255, 255, 0.559)"
                  />
                  <path
                    d="M434.636 188.858C434.636 188.858 440.968 178.891 448.424 181.115C448.424 181.115 441.853 191.669 434.708 191.199L434.636 188.858Z"
                    fill="rgba(255, 255, 255, 0.559)"
                  />
                  <path
                    d="M436.502 179.672C436.502 179.672 442.882 167.121 448.919 169.306C448.919 169.306 444.317 178.954 436.338 181.789L436.502 179.672Z"
                    fill="rgba(255, 255, 255, 0.559)"
                  />
                  <path
                    d="M436.945 167.818C436.945 167.818 443.504 157.938 449.648 159.146C449.648 159.146 444.285 169.166 436.307 170.677L436.945 167.818Z"
                    fill="rgba(255, 255, 255, 0.559)"
                  />
                  <path
                    d="M437.455 157.743C437.455 157.743 442.539 146.655 446.67 146.579C446.67 146.579 444.23 157.587 437.798 159.625L437.455 157.743Z"
                    fill="rgba(255, 255, 255, 0.559)"
                  />
                  <path
                    d="M438.452 147.947C438.452 147.947 444.102 136.719 448.349 136.695C448.349 136.695 445.458 146.296 438.639 148.931L438.452 147.947Z"
                    fill="rgba(255, 255, 255, 0.559)"
                  />
                  <path
                    d="M439.301 136.081C439.301 136.081 443.528 126.791 447.029 125.738C447.029 125.738 444.915 137.062 439.768 138.545L439.301 136.081Z"
                    fill="rgba(255, 255, 255, 0.559)"
                  />
                  <path
                    d="M441.997 126.667L451.443 112.278C451.443 112.278 449.022 126.472 440.617 129.422L441.997 126.667Z"
                    fill="rgba(255, 255, 255, 0.559)"
                  />
                  <path
                    d="M448.48 111.058C448.48 111.058 459.457 103.482 459.856 102.258C459.856 102.258 454.274 112.868 443.907 114.742L448.48 111.058Z"
                    fill="rgba(255, 255, 255, 0.559)"
                  />
                  <path
                    d="M449.138 107.649C449.138 107.649 461.742 95.5317 464.96 95.5436C464.96 95.5436 454.565 96.0181 448.835 107.003L449.138 107.649Z"
                    fill="rgba(255, 255, 255, 0.559)"
                  />
                  <path
                    d="M439.425 137.879L439.883 137.939C442.252 119.403 445.705 108.434 449.605 107.09L449.453 106.652C445.318 108.087 441.841 118.888 439.425 137.879Z"
                    fill="#444053"
                  />
                  <path
                    d="M435.94 182.208L436.633 182.264C436.781 180.533 436.893 178.763 436.968 176.997C437.63 161.654 438.655 147.564 440.003 137.002L439.604 136.503C438.252 147.089 436.937 161.602 436.275 176.969C436.199 178.723 436.087 180.486 435.94 182.208Z"
                    fill="#444053"
                  />
                  <path
                    d="M382.827 266.157C382.947 266.105 395.16 260.651 407.836 247.645C415.263 240.027 421.434 231.28 426.119 221.728C431.98 209.795 435.553 195.13 436.749 180.884L436.028 181.223C433.336 213.2 418.778 235.049 407.202 246.951C394.65 259.841 382.572 265.24 382.453 265.292L382.827 266.157Z"
                    fill="#444053"
                  />
                  <path
                    class="bar"
                    d="M414.452 33.9823H31.3092C30.4039 33.9823 29.5357 34.3419 28.8956 34.982C28.2555 35.622 27.8959 36.4901 27.8959 37.3953V47.3392H417.865V37.3953C417.865 36.4901 417.505 35.622 416.865 34.982C416.225 34.3419 415.357 33.9823 414.452 33.9823V33.9823Z"
                    fill="#3F3D56"
                  />
                  <path
                    class="white-space"
                    d="M27.8959 47.3392V271.113C27.8959 272.938 28.621 274.689 29.9117 275.979C31.2024 277.27 32.9529 277.995 34.7782 277.995H410.983C412.808 277.995 414.558 277.27 415.849 275.979C417.14 274.689 417.865 272.938 417.865 271.113V47.3392H27.8959Z"
                    fill="white"
                  />
                  <path
                    opacity="0.8"
                    d="M34.0724 42.1559C34.9533 42.1559 35.6674 41.4419 35.6674 40.5611C35.6674 39.6803 34.9533 38.9662 34.0724 38.9662C33.1915 38.9662 32.4774 39.6803 32.4774 40.5611C32.4774 41.4419 33.1915 42.1559 34.0724 42.1559Z"
                    fill="#FA5959"
                  />
                  <path
                    opacity="0.8"
                    d="M38.4586 42.1559C39.3395 42.1559 40.0535 41.4419 40.0535 40.5611C40.0535 39.6803 39.3395 38.9662 38.4586 38.9662C37.5777 38.9662 36.8636 39.6803 36.8636 40.5611C36.8636 41.4419 37.5777 42.1559 38.4586 42.1559Z"
                    fill="#FED253"
                  />
                  <path
                    opacity="0.8"
                    d="M42.8447 42.1559C43.7256 42.1559 44.4397 41.4419 44.4397 40.5611C44.4397 39.6803 43.7256 38.9662 42.8447 38.9662C41.9638 38.9662 41.2498 39.6803 41.2498 40.5611C41.2498 41.4419 41.9638 42.1559 42.8447 42.1559Z"
                    fill="#8CCF4D"
                  />
                  <path
                    opacity="0.05"
                    d="M377.556 84.6508H64.1455V222.454H377.556V84.6508Z"
                    fill="black"
                  />
                  <path
                    class="password-screen-space"
                    d="M375.164 85.6954H66.5379V220.46H375.164V85.6954Z"
                    fill="#009688"
                  />
                  <path
                    class="back-layer"
                    d="M150.672 120.379C144.6 120.379 138.664 122.18 133.615 125.554C128.566 128.927 124.63 133.722 122.306 139.332C119.983 144.942 119.375 151.114 120.559 157.07C121.744 163.025 124.668 168.496 128.962 172.789C133.256 177.083 138.727 180.007 144.682 181.191C150.638 182.376 156.812 181.768 162.422 179.444C168.032 177.121 172.827 173.186 176.201 168.137C179.575 163.088 181.375 157.152 181.375 151.08C181.375 147.049 180.581 143.056 179.038 139.332C177.495 135.607 175.234 132.222 172.383 129.372C169.532 126.521 166.147 124.259 162.422 122.716C158.697 121.174 154.704 120.379 150.672 120.379V120.379ZM156.179 151.818V166.355H145.325V151.818C143.823 150.681 142.716 149.101 142.161 147.301C141.605 145.502 141.629 143.573 142.228 141.787C142.828 140.001 143.973 138.449 145.503 137.35C147.032 136.25 148.868 135.658 150.752 135.658C152.636 135.658 154.472 136.25 156.001 137.35C157.531 138.449 158.676 140.001 159.276 141.787C159.876 143.573 159.899 145.502 159.344 147.301C158.788 149.101 157.681 150.681 156.179 151.818V151.818Z"
                    fill="#009688"
                  />
                  <path
                    opacity="0.05"
                    d="M150.672 120.379C144.6 120.379 138.664 122.18 133.615 125.554C128.566 128.927 124.63 133.722 122.306 139.332C119.983 144.942 119.375 151.114 120.559 157.07C121.744 163.025 124.668 168.496 128.962 172.789C133.256 177.083 138.727 180.007 144.682 181.191C150.638 182.376 156.812 181.768 162.422 179.444C168.032 177.121 172.827 173.186 176.201 168.137C179.575 163.088 181.375 157.152 181.375 151.08C181.375 147.049 180.581 143.056 179.038 139.332C177.495 135.607 175.234 132.222 172.383 129.372C169.532 126.521 166.147 124.259 162.422 122.716C158.697 121.174 154.704 120.379 150.672 120.379V120.379ZM156.179 151.818V166.355H145.325V151.818C143.823 150.681 142.716 149.101 142.161 147.301C141.605 145.502 141.629 143.573 142.228 141.787C142.828 140.001 143.973 138.449 145.503 137.35C147.032 136.25 148.868 135.658 150.752 135.658C152.636 135.658 154.472 136.25 156.001 137.35C157.531 138.449 158.676 140.001 159.276 141.787C159.876 143.573 159.899 145.502 159.344 147.301C158.788 149.101 157.681 150.681 156.179 151.818V151.818Z"
                    fill="black"
                  />
                  <path
                    class="lock-layer"
                    d="M150.672 111.608C142.865 111.608 135.233 113.923 128.741 118.26C122.249 122.597 117.19 128.762 114.202 135.975C111.214 143.188 110.432 151.124 111.955 158.781C113.479 166.438 117.238 173.471 122.759 178.992C128.28 184.512 135.314 188.271 142.971 189.795C150.629 191.318 158.566 190.536 165.779 187.548C172.992 184.561 179.157 179.501 183.495 173.01C187.833 166.519 190.148 158.887 190.148 151.08C190.148 140.612 185.989 130.572 178.586 123.169C171.183 115.767 161.142 111.608 150.672 111.608ZM157.75 152.029V170.717H143.794V152.029C141.862 150.567 140.438 148.536 139.723 146.221C139.009 143.906 139.039 141.426 139.81 139.129C140.581 136.833 142.054 134.836 144.021 133.422C145.988 132.007 148.349 131.247 150.772 131.247C153.195 131.247 155.556 132.007 157.523 133.422C159.49 134.836 160.963 136.833 161.734 139.129C162.505 141.426 162.536 143.906 161.821 146.221C161.106 148.536 159.682 150.567 157.75 152.029Z"
                    fill="rgba(255, 255, 255, 0.559)"
                  />
                  <path
                    d="M334.093 145.901H206.496V159.457H334.093V145.901Z"
                    fill="white"
                  />
                  <path
                    class="svg-button"
                    d="M334.093 170.621H306.58V184.178H334.093V170.621Z"
                    fill="#aed581 "
                  />
                  <path
                    d="M219.056 152.476H216.748L218.801 150.427C218.838 150.389 218.859 150.338 218.859 150.285C218.859 150.232 218.838 150.181 218.801 150.143C218.783 150.125 218.761 150.11 218.736 150.1C218.712 150.09 218.686 150.084 218.66 150.084C218.633 150.084 218.607 150.09 218.583 150.1C218.559 150.11 218.537 150.125 218.518 150.143L216.465 152.197V149.884C216.465 149.831 216.444 149.781 216.406 149.743C216.369 149.706 216.318 149.685 216.265 149.685C216.213 149.686 216.163 149.707 216.125 149.744C216.088 149.782 216.067 149.832 216.066 149.884V152.197L214.016 150.131C213.998 150.113 213.976 150.098 213.951 150.088C213.927 150.078 213.901 150.072 213.875 150.072C213.848 150.072 213.822 150.078 213.798 150.088C213.774 150.098 213.752 150.113 213.733 150.131C213.696 150.169 213.676 150.22 213.676 150.273C213.676 150.326 213.696 150.377 213.733 150.415L215.787 152.464H213.474C213.422 152.465 213.371 152.486 213.334 152.523C213.297 152.561 213.276 152.611 213.275 152.663C213.275 152.716 213.296 152.767 213.333 152.804C213.37 152.842 213.421 152.863 213.474 152.863H215.787L213.733 154.916C213.696 154.954 213.676 155.005 213.676 155.058C213.676 155.11 213.696 155.161 213.733 155.199C213.772 155.235 213.822 155.255 213.875 155.255C213.927 155.255 213.978 155.235 214.016 155.199L216.066 153.146V155.454C216.066 155.507 216.087 155.558 216.124 155.595C216.162 155.633 216.212 155.654 216.265 155.654C216.318 155.654 216.369 155.633 216.406 155.595C216.444 155.558 216.465 155.507 216.465 155.454V153.146L218.518 155.199C218.557 155.235 218.607 155.255 218.66 155.255C218.712 155.255 218.763 155.235 218.801 155.199C218.838 155.161 218.859 155.11 218.859 155.058C218.859 155.005 218.838 154.954 218.801 154.916L216.748 152.863H219.056C219.109 152.863 219.16 152.842 219.197 152.804C219.235 152.767 219.256 152.716 219.256 152.663C219.253 152.613 219.23 152.565 219.193 152.53C219.156 152.495 219.107 152.476 219.056 152.476Z"
                    fill="#aed581 "
                  />
                  <path
                    d="M227.43 152.476H225.121L227.175 150.427C227.212 150.389 227.232 150.338 227.232 150.285C227.232 150.232 227.212 150.181 227.175 150.143C227.156 150.125 227.134 150.11 227.11 150.1C227.086 150.09 227.06 150.084 227.033 150.084C227.007 150.084 226.981 150.09 226.957 150.1C226.932 150.11 226.91 150.125 226.892 150.143L224.838 152.197V149.884C224.838 149.831 224.817 149.781 224.78 149.743C224.742 149.706 224.692 149.685 224.639 149.685C224.586 149.686 224.536 149.707 224.499 149.744C224.462 149.782 224.44 149.832 224.439 149.884V152.197L222.39 150.131C222.371 150.113 222.349 150.098 222.325 150.088C222.301 150.078 222.275 150.072 222.248 150.072C222.222 150.072 222.196 150.078 222.172 150.088C222.147 150.098 222.125 150.113 222.107 150.131C222.07 150.169 222.049 150.22 222.049 150.273C222.049 150.326 222.07 150.377 222.107 150.415L224.16 152.464H221.848C221.795 152.465 221.745 152.486 221.708 152.523C221.671 152.561 221.649 152.611 221.648 152.663C221.648 152.716 221.669 152.767 221.707 152.804C221.744 152.842 221.795 152.863 221.848 152.863H224.16L222.107 154.916C222.07 154.954 222.049 155.005 222.049 155.058C222.049 155.11 222.07 155.161 222.107 155.199C222.145 155.235 222.196 155.255 222.248 155.255C222.301 155.255 222.352 155.235 222.39 155.199L224.439 153.146V155.454C224.439 155.507 224.46 155.558 224.498 155.595C224.535 155.633 224.586 155.654 224.639 155.654C224.692 155.654 224.742 155.633 224.78 155.595C224.817 155.558 224.838 155.507 224.838 155.454V153.146L226.892 155.199C226.93 155.235 226.981 155.255 227.033 155.255C227.086 155.255 227.136 155.235 227.175 155.199C227.212 155.161 227.232 155.11 227.232 155.058C227.232 155.005 227.212 154.954 227.175 154.916L225.121 152.863H227.43C227.483 152.863 227.534 152.842 227.571 152.804C227.608 152.767 227.629 152.716 227.629 152.663C227.626 152.613 227.604 152.565 227.567 152.53C227.53 152.495 227.481 152.476 227.43 152.476Z"
                    fill="#aed581 "
                  />
                  <path
                    d="M235.804 152.476H233.495L235.548 150.427C235.585 150.389 235.606 150.338 235.606 150.285C235.606 150.232 235.585 150.181 235.548 150.143C235.53 150.125 235.508 150.11 235.484 150.1C235.459 150.09 235.433 150.084 235.407 150.084C235.381 150.084 235.354 150.09 235.33 150.1C235.306 150.11 235.284 150.125 235.265 150.143L233.212 152.197V149.884C233.212 149.831 233.191 149.781 233.153 149.743C233.116 149.706 233.065 149.685 233.012 149.685C232.96 149.686 232.91 149.707 232.873 149.744C232.835 149.782 232.814 149.832 232.813 149.884V152.197L230.764 150.131C230.745 150.113 230.723 150.098 230.699 150.088C230.674 150.078 230.648 150.072 230.622 150.072C230.596 150.072 230.57 150.078 230.545 150.088C230.521 150.098 230.499 150.113 230.48 150.131C230.444 150.169 230.423 150.22 230.423 150.273C230.423 150.326 230.444 150.377 230.48 150.415L232.534 152.464H230.221C230.169 152.465 230.119 152.486 230.081 152.523C230.044 152.561 230.023 152.611 230.022 152.663C230.022 152.716 230.043 152.767 230.08 152.804C230.118 152.842 230.168 152.863 230.221 152.863H232.534L230.48 154.916C230.444 154.954 230.423 155.005 230.423 155.058C230.423 155.11 230.444 155.161 230.48 155.199C230.519 155.235 230.569 155.255 230.622 155.255C230.674 155.255 230.725 155.235 230.764 155.199L232.813 153.146V155.454C232.813 155.507 232.834 155.558 232.871 155.595C232.909 155.633 232.96 155.654 233.012 155.654C233.065 155.654 233.116 155.633 233.153 155.595C233.191 155.558 233.212 155.507 233.212 155.454V153.146L235.265 155.199C235.304 155.235 235.354 155.255 235.407 155.255C235.459 155.255 235.51 155.235 235.548 155.199C235.585 155.161 235.606 155.11 235.606 155.058C235.606 155.005 235.585 154.954 235.548 154.916L233.495 152.863H235.804C235.856 152.863 235.907 152.842 235.945 152.804C235.982 152.767 236.003 152.716 236.003 152.663C236 152.613 235.978 152.565 235.941 152.53C235.903 152.495 235.854 152.476 235.804 152.476Z"
                    fill="#aed581 "
                  />
                  <path
                    d="M244.177 152.476H241.868L243.922 150.427C243.959 150.389 243.979 150.338 243.979 150.285C243.979 150.232 243.959 150.181 243.922 150.143C243.903 150.125 243.881 150.11 243.857 150.1C243.833 150.09 243.807 150.084 243.78 150.084C243.754 150.084 243.728 150.09 243.704 150.1C243.679 150.11 243.657 150.125 243.639 150.143L241.585 152.197V149.884C241.585 149.831 241.564 149.781 241.527 149.743C241.49 149.706 241.439 149.685 241.386 149.685C241.333 149.686 241.283 149.707 241.246 149.744C241.209 149.782 241.188 149.832 241.187 149.884V152.197L239.137 150.131C239.119 150.113 239.096 150.098 239.072 150.088C239.048 150.078 239.022 150.072 238.995 150.072C238.969 150.072 238.943 150.078 238.919 150.088C238.895 150.098 238.872 150.113 238.854 150.131C238.817 150.169 238.797 150.22 238.797 150.273C238.797 150.326 238.817 150.377 238.854 150.415L240.907 152.464H238.595C238.542 152.465 238.492 152.486 238.455 152.523C238.418 152.561 238.396 152.611 238.395 152.663C238.395 152.716 238.416 152.767 238.454 152.804C238.491 152.842 238.542 152.863 238.595 152.863H240.907L238.854 154.916C238.817 154.954 238.797 155.005 238.797 155.058C238.797 155.11 238.817 155.161 238.854 155.199C238.892 155.235 238.943 155.255 238.995 155.255C239.048 155.255 239.099 155.235 239.137 155.199L241.187 153.146V155.454C241.187 155.507 241.208 155.558 241.245 155.595C241.282 155.633 241.333 155.654 241.386 155.654C241.439 155.654 241.49 155.633 241.527 155.595C241.564 155.558 241.585 155.507 241.585 155.454V153.146L243.639 155.199C243.677 155.235 243.728 155.255 243.78 155.255C243.833 155.255 243.884 155.235 243.922 155.199C243.959 155.161 243.979 155.11 243.979 155.058C243.979 155.005 243.959 154.954 243.922 154.916L241.868 152.863H244.177C244.23 152.863 244.281 152.842 244.318 152.804C244.355 152.767 244.376 152.716 244.376 152.663C244.373 152.613 244.351 152.565 244.314 152.53C244.277 152.495 244.228 152.476 244.177 152.476Z"
                    fill="#aed581 "
                  />
                  <path
                    d="M252.551 152.476H250.242L252.296 150.427C252.332 150.389 252.353 150.338 252.353 150.285C252.353 150.232 252.332 150.181 252.296 150.143C252.277 150.125 252.255 150.11 252.231 150.1C252.206 150.09 252.18 150.084 252.154 150.084C252.128 150.084 252.102 150.09 252.077 150.1C252.053 150.11 252.031 150.125 252.012 150.143L249.959 152.197V149.884C249.959 149.831 249.938 149.781 249.9 149.743C249.863 149.706 249.812 149.685 249.76 149.685C249.707 149.686 249.657 149.707 249.62 149.744C249.582 149.782 249.561 149.832 249.56 149.884V152.197L247.511 150.131C247.492 150.113 247.47 150.098 247.446 150.088C247.421 150.078 247.395 150.072 247.369 150.072C247.343 150.072 247.317 150.078 247.292 150.088C247.268 150.098 247.246 150.113 247.228 150.131C247.191 150.169 247.17 150.22 247.17 150.273C247.17 150.326 247.191 150.377 247.228 150.415L249.281 152.464H246.968C246.916 152.465 246.866 152.486 246.828 152.523C246.791 152.561 246.77 152.611 246.769 152.663C246.769 152.716 246.79 152.767 246.827 152.804C246.865 152.842 246.915 152.863 246.968 152.863H249.281L247.228 154.916C247.191 154.954 247.17 155.005 247.17 155.058C247.17 155.11 247.191 155.161 247.228 155.199C247.266 155.235 247.316 155.255 247.369 155.255C247.422 155.255 247.472 155.235 247.511 155.199L249.56 153.146V155.454C249.56 155.507 249.581 155.558 249.619 155.595C249.656 155.633 249.707 155.654 249.76 155.654C249.812 155.654 249.863 155.633 249.9 155.595C249.938 155.558 249.959 155.507 249.959 155.454V153.146L252.012 155.199C252.051 155.235 252.101 155.255 252.154 155.255C252.207 155.255 252.257 155.235 252.296 155.199C252.332 155.161 252.353 155.11 252.353 155.058C252.353 155.005 252.332 154.954 252.296 154.916L250.242 152.863H252.551C252.604 152.863 252.654 152.842 252.692 152.804C252.729 152.767 252.75 152.716 252.75 152.663C252.747 152.613 252.725 152.565 252.688 152.53C252.651 152.495 252.602 152.476 252.551 152.476Z"
                    fill="#aed581 "
                  />
                  <path
                    d="M260.924 152.476H258.616L260.669 150.427C260.706 150.389 260.726 150.338 260.726 150.285C260.726 150.232 260.706 150.181 260.669 150.143C260.651 150.125 260.628 150.11 260.604 150.1C260.58 150.09 260.554 150.084 260.528 150.084C260.501 150.084 260.475 150.09 260.451 150.1C260.427 150.11 260.405 150.125 260.386 150.143L258.332 152.197V149.884C258.332 149.831 258.311 149.781 258.274 149.743C258.237 149.706 258.186 149.685 258.133 149.685C258.081 149.686 258.03 149.707 257.993 149.744C257.956 149.782 257.935 149.832 257.934 149.884V152.197L255.884 150.131C255.866 150.113 255.844 150.098 255.819 150.088C255.795 150.078 255.769 150.072 255.743 150.072C255.716 150.072 255.69 150.078 255.666 150.088C255.642 150.098 255.62 150.113 255.601 150.131C255.564 150.169 255.544 150.22 255.544 150.273C255.544 150.326 255.564 150.377 255.601 150.415L257.655 152.464H255.342C255.289 152.465 255.239 152.486 255.202 152.523C255.165 152.561 255.144 152.611 255.143 152.663C255.143 152.716 255.164 152.767 255.201 152.804C255.238 152.842 255.289 152.863 255.342 152.863H257.655L255.601 154.916C255.564 154.954 255.544 155.005 255.544 155.058C255.544 155.11 255.564 155.161 255.601 155.199C255.639 155.235 255.69 155.255 255.743 155.255C255.795 155.255 255.846 155.235 255.884 155.199L257.934 153.146V155.454C257.934 155.507 257.955 155.558 257.992 155.595C258.029 155.633 258.08 155.654 258.133 155.654C258.186 155.654 258.237 155.633 258.274 155.595C258.311 155.558 258.332 155.507 258.332 155.454V153.146L260.386 155.199C260.424 155.235 260.475 155.255 260.528 155.255C260.58 155.255 260.631 155.235 260.669 155.199C260.706 155.161 260.726 155.11 260.726 155.058C260.726 155.005 260.706 154.954 260.669 154.916L258.616 152.863H260.924C260.977 152.863 261.028 152.842 261.065 152.804C261.103 152.767 261.124 152.716 261.124 152.663C261.121 152.613 261.098 152.565 261.061 152.53C261.024 152.495 260.975 152.476 260.924 152.476Z"
                    fill="#aed581 "
                  />
                  <path
                    d="M269.298 152.476H266.989L269.043 150.427C269.079 150.389 269.1 150.338 269.1 150.285C269.1 150.232 269.079 150.181 269.043 150.143C269.024 150.125 269.002 150.11 268.978 150.1C268.953 150.09 268.927 150.084 268.901 150.084C268.875 150.084 268.849 150.09 268.824 150.1C268.8 150.11 268.778 150.125 268.76 150.143L266.706 152.197V149.884C266.706 149.831 266.685 149.781 266.648 149.743C266.61 149.706 266.56 149.685 266.507 149.685C266.454 149.686 266.404 149.707 266.367 149.744C266.33 149.782 266.308 149.832 266.307 149.884V152.197L264.258 150.131C264.239 150.113 264.217 150.098 264.193 150.088C264.169 150.078 264.143 150.072 264.116 150.072C264.09 150.072 264.064 150.078 264.04 150.088C264.015 150.098 263.993 150.113 263.975 150.131C263.938 150.169 263.917 150.22 263.917 150.273C263.917 150.326 263.938 150.377 263.975 150.415L266.028 152.464H263.715C263.663 152.465 263.613 152.486 263.576 152.523C263.538 152.561 263.517 152.611 263.516 152.663C263.516 152.716 263.537 152.767 263.574 152.804C263.612 152.842 263.663 152.863 263.715 152.863H266.028L263.975 154.916C263.938 154.954 263.917 155.005 263.917 155.058C263.917 155.11 263.938 155.161 263.975 155.199C264.013 155.235 264.064 155.255 264.116 155.255C264.169 155.255 264.219 155.235 264.258 155.199L266.307 153.146V155.454C266.307 155.507 266.328 155.558 266.366 155.595C266.403 155.633 266.454 155.654 266.507 155.654C266.56 155.654 266.61 155.633 266.648 155.595C266.685 155.558 266.706 155.507 266.706 155.454V153.146L268.76 155.199C268.798 155.235 268.849 155.255 268.901 155.255C268.954 155.255 269.004 155.235 269.043 155.199C269.079 155.161 269.1 155.11 269.1 155.058C269.1 155.005 269.079 154.954 269.043 154.916L266.989 152.863H269.298C269.351 152.863 269.401 152.842 269.439 152.804C269.476 152.767 269.497 152.716 269.497 152.663C269.494 152.613 269.472 152.565 269.435 152.53C269.398 152.495 269.349 152.476 269.298 152.476Z"
                    fill="#aed581 "
                  />
                  <path
                    d="M277.671 152.476H275.363L277.416 150.427C277.453 150.389 277.474 150.338 277.474 150.285C277.474 150.232 277.453 150.181 277.416 150.143C277.398 150.125 277.376 150.11 277.351 150.1C277.327 150.09 277.301 150.084 277.275 150.084C277.248 150.084 277.222 150.09 277.198 150.1C277.174 150.11 277.152 150.125 277.133 150.143L275.08 152.197V149.884C275.08 149.831 275.059 149.781 275.021 149.743C274.984 149.706 274.933 149.685 274.88 149.685C274.828 149.686 274.778 149.707 274.74 149.744C274.703 149.782 274.682 149.832 274.681 149.884V152.197L272.631 150.131C272.613 150.113 272.591 150.098 272.566 150.088C272.542 150.078 272.516 150.072 272.49 150.072C272.463 150.072 272.437 150.078 272.413 150.088C272.389 150.098 272.367 150.113 272.348 150.131C272.311 150.169 272.291 150.22 272.291 150.273C272.291 150.326 272.311 150.377 272.348 150.415L274.402 152.464H272.089C272.036 152.465 271.986 152.486 271.949 152.523C271.912 152.561 271.891 152.611 271.89 152.663C271.89 152.716 271.911 152.767 271.948 152.804C271.985 152.842 272.036 152.863 272.089 152.863H274.402L272.348 154.916C272.311 154.954 272.291 155.005 272.291 155.058C272.291 155.11 272.311 155.161 272.348 155.199C272.387 155.235 272.437 155.255 272.49 155.255C272.542 155.255 272.593 155.235 272.631 155.199L274.681 153.146V155.454C274.681 155.507 274.702 155.558 274.739 155.595C274.777 155.633 274.827 155.654 274.88 155.654C274.933 155.654 274.984 155.633 275.021 155.595C275.059 155.558 275.08 155.507 275.08 155.454V153.146L277.133 155.199C277.171 155.235 277.222 155.255 277.275 155.255C277.327 155.255 277.378 155.235 277.416 155.199C277.453 155.161 277.474 155.11 277.474 155.058C277.474 155.005 277.453 154.954 277.416 154.916L275.363 152.863H277.671C277.724 152.863 277.775 152.842 277.812 152.804C277.85 152.767 277.871 152.716 277.871 152.663C277.868 152.613 277.845 152.565 277.808 152.53C277.771 152.495 277.722 152.476 277.671 152.476Z"
                    fill="#aed581 "
                  />
                  <path
                    d="M286.045 152.476H283.736L285.79 150.427C285.827 150.389 285.847 150.338 285.847 150.285C285.847 150.232 285.827 150.181 285.79 150.143C285.771 150.125 285.749 150.11 285.725 150.1C285.701 150.09 285.675 150.084 285.648 150.084C285.622 150.084 285.596 150.09 285.572 150.1C285.547 150.11 285.525 150.125 285.507 150.143L283.453 152.197V149.884C283.453 149.831 283.432 149.781 283.395 149.743C283.357 149.706 283.307 149.685 283.254 149.685C283.201 149.686 283.151 149.707 283.114 149.744C283.077 149.782 283.055 149.832 283.054 149.884V152.197L281.005 150.131C280.986 150.113 280.964 150.098 280.94 150.088C280.916 150.078 280.89 150.072 280.863 150.072C280.837 150.072 280.811 150.078 280.787 150.088C280.762 150.098 280.74 150.113 280.722 150.131C280.685 150.169 280.664 150.22 280.664 150.273C280.664 150.326 280.685 150.377 280.722 150.415L282.775 152.464H280.463C280.41 152.465 280.36 152.486 280.323 152.523C280.286 152.561 280.264 152.611 280.263 152.663C280.263 152.716 280.284 152.767 280.322 152.804C280.359 152.842 280.41 152.863 280.463 152.863H282.775L280.722 154.916C280.685 154.954 280.664 155.005 280.664 155.058C280.664 155.11 280.685 155.161 280.722 155.199C280.76 155.235 280.811 155.255 280.863 155.255C280.916 155.255 280.966 155.235 281.005 155.199L283.054 153.146V155.454C283.054 155.507 283.075 155.558 283.113 155.595C283.15 155.633 283.201 155.654 283.254 155.654C283.307 155.654 283.357 155.633 283.395 155.595C283.432 155.558 283.453 155.507 283.453 155.454V153.146L285.507 155.199C285.545 155.235 285.596 155.255 285.648 155.255C285.701 155.255 285.751 155.235 285.79 155.199C285.827 155.161 285.847 155.11 285.847 155.058C285.847 155.005 285.827 154.954 285.79 154.916L283.736 152.863H286.045C286.098 152.863 286.149 152.842 286.186 152.804C286.223 152.767 286.244 152.716 286.244 152.663C286.241 152.613 286.219 152.565 286.182 152.53C286.145 152.495 286.096 152.476 286.045 152.476Z"
                    fill="#aed581 "
                  />
                  <path
                    d="M294.419 152.476H292.11L294.163 150.427C294.2 150.389 294.221 150.338 294.221 150.285C294.221 150.232 294.2 150.181 294.163 150.143C294.145 150.125 294.123 150.11 294.098 150.1C294.074 150.09 294.048 150.084 294.022 150.084C293.995 150.084 293.969 150.09 293.945 150.1C293.921 150.11 293.899 150.125 293.88 150.143L291.827 152.197V149.884C291.827 149.831 291.806 149.781 291.768 149.743C291.731 149.706 291.68 149.685 291.627 149.685C291.575 149.686 291.525 149.707 291.487 149.744C291.45 149.782 291.429 149.832 291.428 149.884V152.197L289.378 150.131C289.36 150.113 289.338 150.098 289.314 150.088C289.289 150.078 289.263 150.072 289.237 150.072C289.211 150.072 289.184 150.078 289.16 150.088C289.136 150.098 289.114 150.113 289.095 150.131C289.059 150.169 289.038 150.22 289.038 150.273C289.038 150.326 289.059 150.377 289.095 150.415L291.149 152.464H288.836C288.784 152.465 288.733 152.486 288.696 152.523C288.659 152.561 288.638 152.611 288.637 152.663C288.637 152.716 288.658 152.767 288.695 152.804C288.733 152.842 288.783 152.863 288.836 152.863H291.149L289.095 154.916C289.059 154.954 289.038 155.005 289.038 155.058C289.038 155.11 289.059 155.161 289.095 155.199C289.134 155.235 289.184 155.255 289.237 155.255C289.289 155.255 289.34 155.235 289.378 155.199L291.428 153.146V155.454C291.428 155.507 291.449 155.558 291.486 155.595C291.524 155.633 291.574 155.654 291.627 155.654C291.68 155.654 291.731 155.633 291.768 155.595C291.806 155.558 291.827 155.507 291.827 155.454V153.146L293.88 155.199C293.919 155.235 293.969 155.255 294.022 155.255C294.074 155.255 294.125 155.235 294.163 155.199C294.2 155.161 294.221 155.11 294.221 155.058C294.221 155.005 294.2 154.954 294.163 154.916L292.11 152.863H294.419C294.471 152.863 294.522 152.842 294.559 152.804C294.597 152.767 294.618 152.716 294.618 152.663C294.615 152.613 294.592 152.565 294.555 152.53C294.518 152.495 294.469 152.476 294.419 152.476Z"
                    fill="#aed581 "
                  />
                  <path
                    d="M302.792 152.476H300.483L302.537 150.427C302.574 150.389 302.594 150.338 302.594 150.285C302.594 150.232 302.574 150.181 302.537 150.143C302.518 150.125 302.496 150.11 302.472 150.1C302.448 150.09 302.422 150.084 302.395 150.084C302.369 150.084 302.343 150.09 302.319 150.1C302.294 150.11 302.272 150.125 302.254 150.143L300.2 152.197V149.884C300.2 149.831 300.179 149.781 300.142 149.743C300.104 149.706 300.054 149.685 300.001 149.685C299.948 149.686 299.898 149.707 299.861 149.744C299.824 149.782 299.803 149.832 299.802 149.884V152.197L297.752 150.131C297.733 150.113 297.711 150.098 297.687 150.088C297.663 150.078 297.637 150.072 297.61 150.072C297.584 150.072 297.558 150.078 297.534 150.088C297.509 150.098 297.487 150.113 297.469 150.131C297.432 150.169 297.412 150.22 297.412 150.273C297.412 150.326 297.432 150.377 297.469 150.415L299.522 152.464H297.21C297.157 152.465 297.107 152.486 297.07 152.523C297.033 152.561 297.011 152.611 297.01 152.663C297.01 152.716 297.031 152.767 297.069 152.804C297.106 152.842 297.157 152.863 297.21 152.863H299.522L297.469 154.916C297.432 154.954 297.412 155.005 297.412 155.058C297.412 155.11 297.432 155.161 297.469 155.199C297.507 155.235 297.558 155.255 297.61 155.255C297.663 155.255 297.714 155.235 297.752 155.199L299.802 153.146V155.454C299.802 155.507 299.823 155.558 299.86 155.595C299.897 155.633 299.948 155.654 300.001 155.654C300.054 155.654 300.104 155.633 300.142 155.595C300.179 155.558 300.2 155.507 300.2 155.454V153.146L302.254 155.199C302.292 155.235 302.343 155.255 302.395 155.255C302.448 155.255 302.499 155.235 302.537 155.199C302.574 155.161 302.594 155.11 302.594 155.058C302.594 155.005 302.574 154.954 302.537 154.916L300.483 152.863H302.792C302.845 152.863 302.896 152.842 302.933 152.804C302.97 152.767 302.991 152.716 302.991 152.663C302.988 152.613 302.966 152.565 302.929 152.53C302.892 152.495 302.843 152.476 302.792 152.476Z"
                    fill="#aed581 "
                  />
                  <path
                    d="M366.985 200.979C366.974 200.497 366.914 200.018 366.806 199.548C366.447 198.2 365.638 196.57 364.306 196.163C362.931 195.742 361.603 195.181 360.342 194.488C360.103 190.214 361.084 185.84 360.015 181.698C359.617 180.182 358.959 178.731 358.783 177.18C358.564 175.25 359.09 173.193 358.321 171.415C357.715 170.011 356.383 169.022 354.951 168.504C353.52 167.986 351.977 167.846 350.458 167.707C348.544 167.551 342.347 166.818 340.186 168.528C340.037 168.644 339.903 168.778 339.787 168.927V168.927C339.74 168.993 339.697 169.062 339.66 169.134L339.64 169.166C339.596 169.249 339.56 169.336 339.532 169.425V169.425C339.502 169.523 339.479 169.623 339.464 169.724C339.464 169.756 339.464 169.788 339.464 169.82C339.464 169.852 339.464 169.959 339.464 170.031V170.139C339.464 170.211 339.464 170.282 339.464 170.358C339.464 170.434 339.464 170.414 339.464 170.442C339.492 170.801 339.544 171.16 339.544 171.514C339.548 171.691 339.532 171.868 339.496 172.041C339.363 172.511 339.138 172.95 338.834 173.333V173.333L338.762 173.436C338.719 173.5 338.675 173.56 338.635 173.624C338.595 173.687 338.563 173.735 338.531 173.791C338.499 173.847 338.467 173.883 338.44 173.935C338.401 174 338.366 174.068 338.336 174.138C338.336 174.178 338.292 174.214 338.276 174.254C338.226 174.361 338.186 174.473 338.156 174.588C338.063 174.935 338.055 175.299 338.132 175.649C338.24 176.096 338.425 176.521 338.679 176.905C338.778 177.068 338.886 177.228 338.998 177.387L339.277 177.766C339.225 178.136 339.197 178.509 339.193 178.883C339.193 180.131 339.477 181.363 340.023 182.486C340.568 183.609 341.362 184.594 342.343 185.366C342.501 187.05 342.484 188.745 342.291 190.425C342.255 190.776 342.212 191.131 342.164 191.482C342.116 191.833 342.08 192.064 342.032 192.355C341.449 192.439 340.854 192.394 340.29 192.224C340.029 192.107 339.763 192.005 339.492 191.917C338.332 191.626 337.148 192.782 335.999 192.431C335.999 192.487 335.967 192.539 335.947 192.59C335.708 192.441 335.432 192.36 335.15 192.355C334.468 192.323 333.914 191.829 333.419 191.362L331.9 189.931C331.801 189.843 331.713 189.744 331.637 189.636C331.555 189.481 331.494 189.316 331.454 189.146C331.198 188.32 330.58 187.662 329.982 187.036C329.869 186.894 329.719 186.785 329.548 186.721C329.482 186.711 329.414 186.711 329.348 186.721C329.308 186.666 329.264 186.612 329.217 186.562C329.113 186.443 329.003 186.332 328.886 186.227C328.16 185.557 328.088 184.983 327.458 184.233C326.909 183.518 326.41 182.766 325.967 181.981C325.915 181.562 325.843 181.131 325.756 180.697C325.555 179.702 325.262 178.727 324.882 177.786L324.085 176.02L323.993 176.112C323.415 175.25 322.797 174.78 322.243 174.892C321.314 175.083 320.855 176.885 321.003 179.241L321.322 181.634C321.322 181.694 321.349 181.753 321.365 181.813C321.308 182.097 321.279 182.385 321.278 182.674C321.278 183.009 321.589 183.257 321.752 183.556C322.014 183.961 322.152 184.433 322.151 184.915C322.131 185.087 322.079 185.25 322.071 185.418C322.093 185.792 322.223 186.152 322.446 186.454L324.44 189.803L324.838 190.505L324.862 190.537C324.988 190.782 325.172 190.993 325.397 191.151C325.475 191.99 325.697 192.808 326.055 193.571C326.122 193.723 326.198 193.866 326.278 194.01C326.814 194.891 327.445 195.71 328.16 196.454L329.109 197.518C330.046 198.563 330.983 199.612 332 200.577C332.364 200.964 332.804 201.272 333.292 201.482C333.531 201.577 333.791 201.608 334.046 201.571C334.301 201.534 334.541 201.43 334.743 201.27C334.743 201.765 334.743 202.259 334.743 202.754C334.891 202.763 335.034 202.811 335.157 202.894C335.28 202.977 335.379 203.091 335.443 203.225C335.507 203.358 335.535 203.507 335.522 203.654C335.51 203.802 335.459 203.944 335.373 204.065C334.536 206.214 333.691 208.383 332.423 210.309C333.318 210.839 334.147 211.472 334.895 212.195C335.38 212.733 335.811 213.316 336.183 213.938C336.219 214.233 336.246 214.524 336.262 214.815C336.557 219.567 334.719 224.284 333.072 228.814C332.598 230.097 332.08 231.441 332.119 232.777C331.807 232.969 331.509 233.184 331.226 233.419C331.553 234.272 331.426 235.033 331.39 235.946C331.378 236.494 331.266 237.034 331.059 237.541C330.885 237.893 330.694 238.235 330.485 238.566C329.452 240.388 329.225 242.553 329.017 244.634C328.894 245.89 329.38 247.425 328.81 248.55C327.825 250.48 326.952 252.537 326.816 254.682C326.811 255.165 326.75 255.645 326.633 256.113C326.509 256.512 326.29 256.851 326.178 257.242C326.063 257.765 326.036 258.304 326.098 258.837C326.174 260.748 325.89 262.656 325.261 264.462C324.763 265.886 324.212 267.409 324.603 268.872C323.641 269.883 323.047 271.187 322.917 272.576C322.906 272.932 322.864 273.285 322.789 273.633C322.667 273.988 322.507 274.329 322.31 274.65C321.508 276.111 321.132 277.769 321.226 279.434C320.03 281.057 319.432 283.058 319.077 285.048C318.722 287.038 318.566 289.063 318.112 291.029C317.506 293.628 316.409 296.256 316.194 298.919C314.902 299.745 314.344 301.343 314.096 302.855C313.849 304.366 313.809 305.953 313.175 307.348C312.848 308.074 312.378 308.724 312.067 309.465C311.849 310.056 311.688 310.666 311.588 311.287C311.397 312.26 311.229 313.345 311.465 314.278C311.126 314.636 310.732 314.936 310.296 315.167C310.36 314.92 310.412 314.672 310.456 314.421C309.427 315.354 307.561 315.027 306.74 316.148C306.493 316.509 306.397 316.952 306.471 317.383C306.546 317.814 306.785 318.199 307.138 318.456C307.395 318.613 307.673 318.732 307.964 318.811C309.957 319.449 312.007 320.091 314.057 319.752C314.299 319.726 314.533 319.651 314.746 319.533C315.013 319.336 315.232 319.083 315.388 318.791C315.695 318.305 316.002 317.818 316.305 317.332C317.04 317.551 317.787 317.725 318.542 317.854C318.618 318.492 318.674 319.13 318.702 319.768C319.101 319.848 319.635 319.872 319.822 319.501C319.879 319.361 319.902 319.209 319.89 319.058C319.89 318.775 319.93 318.4 319.954 318.018H320.034C321.25 318.067 322.461 317.822 323.562 317.304C323.136 313.771 324.543 310.318 325.764 306.977C327.051 303.461 328.156 299.88 329.268 296.3C330.066 293.78 330.947 291.34 331.729 288.816C332.712 285.626 333.7 282.436 334.691 279.247C335.122 277.843 335.557 276.456 336.051 275.06C337.092 272.236 338.327 269.488 339.747 266.835C340.146 266.081 340.545 265.336 340.872 264.554C341.271 263.601 341.554 262.604 341.873 261.62C342.568 259.599 343.405 257.63 344.377 255.727C344.405 255.675 344.425 255.627 344.453 255.579C344.776 256.899 345.098 258.239 345.314 259.566C345.605 261.194 345.628 262.859 345.382 264.494C345.19 265.607 344.827 266.707 344.871 267.836C344.931 269.395 345.764 270.81 346.175 272.313C346.44 273.438 346.589 274.587 346.622 275.742C346.733 277.536 347.706 279.55 347.02 281.212C344.887 286.479 345.92 292.428 344.704 297.958C344.078 300.797 342.16 303.465 342.311 306.367C342.418 308.427 342.598 310.482 342.854 312.531C342.915 313.178 343.083 313.81 343.352 314.401C343.511 314.712 343.694 315.011 343.898 315.294C343.723 315.362 343.575 315.542 343.448 315.92C343.121 316.917 343.448 318.153 344.333 318.711C344.694 318.904 345.083 319.039 345.485 319.11C346.027 319.264 346.588 319.342 347.152 319.341C347.327 319.332 347.502 319.311 347.674 319.278C348.291 319.536 348.92 319.763 349.56 319.955C349.56 320.119 349.592 320.282 349.612 320.446C349.613 320.531 349.632 320.615 349.668 320.693C349.704 320.771 349.755 320.84 349.82 320.896C349.919 320.943 350.029 320.962 350.139 320.952H352.304C352.304 320.773 352.304 320.589 352.304 320.41C352.552 320.436 352.802 320.409 353.039 320.332C353.276 320.255 353.494 320.13 353.679 319.963C353.871 319.719 354.007 319.436 354.078 319.134C354.668 317.132 355.254 315.13 355.837 313.125C356.535 310.91 356.825 308.586 356.694 306.268C355.924 298.919 357.615 291.547 357.065 284.179C356.734 279.75 356.961 275.297 357.743 270.926C357.922 269.937 358.141 268.932 358.221 267.947C358.396 266.089 358.181 264.211 358.313 262.365C358.357 261.719 358.444 261.077 358.524 260.435C359.07 256.451 359.357 252.436 359.381 248.414C359.369 247.082 359.287 245.751 359.134 244.427C359.55 244.321 359.927 244.1 360.223 243.789C360.578 243.327 360.486 242.677 360.482 242.087C360.482 240.675 361.076 239.343 361.555 238.012C362.169 236.175 362.672 234.303 363.062 232.406C363.474 230.877 363.699 229.304 363.732 227.721C363.732 227.562 363.724 227.402 363.708 227.243C363.858 227.138 363.983 227.002 364.075 226.844C364.179 226.61 364.243 226.361 364.266 226.106C364.41 225.09 364.557 224.069 364.701 223.048C364.807 222.317 364.912 221.587 365.016 220.859L366.284 212.012C366.391 211.242 366.503 210.477 366.611 209.711L366.941 207.423C366.977 207.151 367.017 206.88 367.045 206.625C368.018 204.998 367.089 202.829 366.985 200.979ZM356.407 234.104C355.936 232.988 355.498 231.844 355.609 230.64H355.565C355.67 230.269 355.652 229.875 355.514 229.515C355.39 229.224 355.175 228.977 355.043 228.686C354.902 228.331 354.829 227.952 354.828 227.569C354.729 225.145 354.92 222.716 355.398 220.337C355.45 220.058 355.506 219.775 355.557 219.496C355.725 219.399 355.878 219.28 356.012 219.141C356.222 218.902 356.395 218.633 356.526 218.343C356.977 217.438 357.388 216.517 357.766 215.58C357.89 215.277 358.07 214.926 358.377 214.851C358.313 217.183 358.552 219.563 357.603 221.669C357.423 222.008 357.289 222.37 357.204 222.745C357.117 223.339 357.364 223.941 357.276 224.531C357.232 224.838 357.101 225.121 357.049 225.424C357.009 225.573 357.01 225.73 357.051 225.878C357.091 226.027 357.17 226.162 357.28 226.27C357.333 226.307 357.391 226.336 357.451 226.357C357.428 226.517 357.408 226.68 357.392 226.836C357.36 227.163 357.344 227.47 357.324 227.661C357.232 228.637 357.196 229.616 357.216 230.596C357.216 231.652 357.256 232.709 357.24 233.785C357.255 234.095 357.203 234.403 357.089 234.691C357.01 234.839 356.907 234.973 356.786 235.089C356.67 234.73 356.542 234.415 356.407 234.104Z"
                    fill="url(#paint0_linear)"
                  />
                  <path
                    d="M324.931 187.842C326.148 187.592 326.562 184.597 325.856 181.152C325.15 177.707 323.591 175.117 322.375 175.366C321.158 175.615 320.744 178.61 321.45 182.055C322.156 185.5 323.714 188.091 324.931 187.842Z"
                    fill="#FBBEBE"
                  />
                  <path
                    d="M343.512 315.996C343.185 316.985 343.512 318.221 344.397 318.759C344.755 318.95 345.141 319.085 345.541 319.158C346.082 319.311 346.642 319.387 347.204 319.385C347.894 319.353 348.556 319.082 349.245 318.986C349.325 318.966 349.409 318.978 349.481 319.018C349.515 319.055 349.541 319.1 349.556 319.148C349.571 319.196 349.576 319.247 349.568 319.298C349.576 319.69 349.605 320.081 349.656 320.47C349.657 320.555 349.676 320.64 349.711 320.717C349.747 320.795 349.799 320.864 349.863 320.92C349.963 320.967 350.073 320.986 350.182 320.976H352.344C352.393 319.078 352.185 317.181 351.726 315.338C351.696 315.197 351.642 315.062 351.566 314.94C351.383 314.739 351.142 314.599 350.876 314.541C350.348 314.321 349.777 314.222 349.206 314.25C348.508 314.341 347.926 314.792 347.331 315.167C346.737 315.542 345.928 315.873 345.206 315.681C344.484 315.49 343.882 314.888 343.512 315.996Z"
                    fill="#aed581 "
                  />
                  <path
                    d="M311.78 314.246C311.172 314.896 310.427 315.403 309.599 315.729L309.232 315.904C309.181 315.924 309.138 315.959 309.108 316.004C309.101 316.035 309.101 316.067 309.108 316.098C309.115 316.129 309.129 316.158 309.148 316.184C309.453 316.656 309.904 317.015 310.433 317.207C310.961 317.399 311.538 317.414 312.075 317.248C312.312 317.189 312.532 317.074 312.717 316.913C313.021 316.553 313.195 316.101 313.211 315.629C313.332 315.143 313.311 314.633 313.151 314.158C312.597 312.91 312.394 313.476 311.78 314.246Z"
                    fill="#FBBEBE"
                  />
                  <path
                    d="M320.066 319.158C320.078 319.309 320.055 319.46 319.998 319.601C319.81 319.967 319.288 319.947 318.881 319.868C318.82 318.515 318.656 317.169 318.391 315.841C317.617 315.805 317.059 316.538 316.644 317.196L315.576 318.891C315.421 319.183 315.203 319.436 314.938 319.632C314.724 319.749 314.49 319.824 314.248 319.852C312.206 320.191 310.145 319.549 308.175 318.911C307.885 318.833 307.607 318.715 307.35 318.56C306.998 318.302 306.76 317.918 306.686 317.488C306.612 317.058 306.707 316.616 306.951 316.255C307.776 315.139 309.63 315.458 310.659 314.533C310.552 315.184 310.375 315.821 310.133 316.435C311.509 316.227 312.434 314.967 313.542 314.126C313.821 313.89 314.156 313.731 314.515 313.664C314.784 313.641 315.054 313.67 315.313 313.747C316.591 314.069 317.787 314.658 318.821 315.474C319.24 315.805 319.894 316.271 320.078 316.782C320.273 317.392 320.066 318.508 320.066 319.158Z"
                    fill="#aed581 "
                  />
                  <path
                    d="M347.495 187.607C352.045 187.607 355.733 183.919 355.733 179.369C355.733 174.82 352.045 171.132 347.495 171.132C342.945 171.132 339.257 174.82 339.257 179.369C339.257 183.919 342.945 187.607 347.495 187.607Z"
                    fill="#FBBEBE"
                  />
                  <path
                    d="M363.724 228.004C363.69 229.579 363.467 231.144 363.058 232.665C362.668 234.554 362.164 236.418 361.551 238.247C361.076 239.575 360.482 240.906 360.486 242.314C360.486 242.9 360.582 243.55 360.223 244.012C359.903 244.337 359.5 244.567 359.058 244.678C358.838 244.737 358.634 244.846 358.464 244.998C358.294 245.15 358.161 245.339 358.078 245.551C357.703 244.992 357.423 244.375 357.248 243.725C356.533 241.535 355.869 239.333 355.254 237.119C355.198 236.991 355.174 236.852 355.184 236.713C355.193 236.574 355.237 236.44 355.31 236.321C355.411 236.233 355.53 236.167 355.657 236.126C356.066 235.959 356.44 235.719 356.762 235.416C356.913 235.282 357.037 235.121 357.129 234.942C357.244 234.656 357.297 234.349 357.284 234.041C357.284 232.984 357.284 231.931 357.256 230.875C357.239 229.899 357.277 228.924 357.368 227.952C357.368 227.761 357.404 227.454 357.436 227.127C357.495 226.501 357.615 225.775 357.954 225.532C358.46 225.193 359.976 225.648 360.55 225.727C361.539 225.863 362.543 226.023 363.508 226.21C363.649 226.798 363.721 227.4 363.724 228.004Z"
                    fill="#3F3D56"
                  />
                  <path
                    d="M330.461 188.591C330.142 189.229 329.376 189.536 328.786 189.939L326.764 191.326C326.629 191.448 326.471 191.541 326.299 191.6C326.127 191.659 325.945 191.683 325.764 191.669C325.599 191.609 325.448 191.516 325.32 191.396C325.192 191.276 325.089 191.132 325.018 190.972C325.019 190.961 325.019 190.95 325.018 190.94L324.599 190.238L322.606 186.897C322.384 186.598 322.255 186.24 322.235 185.868C322.235 185.697 322.295 185.537 322.31 185.366C322.316 184.884 322.177 184.412 321.912 184.01C321.752 183.711 321.433 183.464 321.441 183.129C321.426 182.689 321.502 182.25 321.665 181.841C321.874 181.463 322.174 181.142 322.538 180.908C322.725 180.773 322.917 180.645 323.116 180.509C323.222 180.437 323.339 180.383 323.463 180.35C323.794 180.282 324.121 180.557 324.456 180.569C325.895 181.534 326.449 183.36 327.582 184.676C328.22 185.426 328.284 186 329.005 186.67C329.121 186.773 329.233 186.885 329.34 187C329.483 187.156 329.604 187.33 329.699 187.519C329.831 187.862 330.624 188.264 330.461 188.591Z"
                    fill="#3F3D56"
                  />
                  <path
                    d="M344.6 187.61C345.194 188.866 345.657 190.246 345.485 191.626C345.45 191.999 345.332 192.36 345.138 192.682C344.564 193.563 343.36 193.723 342.311 193.775C342.09 193.756 341.868 193.782 341.657 193.85C341.446 193.919 341.251 194.029 341.083 194.173C340.943 194.377 340.875 194.621 340.888 194.868C340.902 195.115 340.997 195.35 341.159 195.537C341.496 195.897 341.914 196.17 342.379 196.334C344.038 197.064 345.828 197.666 347.63 197.499C348.468 197.419 349.281 197.176 350.115 197.052C351.023 196.954 351.936 196.903 352.85 196.901C353.935 196.861 355.015 196.753 356.096 196.645L358.959 196.362C359.115 196.364 359.267 196.309 359.385 196.207C359.597 195.96 359.326 195.597 359.062 195.409C357.543 194.285 355.609 193.511 354.744 191.821C354.345 191.023 354.222 190.075 353.927 189.213C353.632 188.352 353.161 187.575 352.978 186.697C352.88 185.928 352.836 185.153 352.846 184.377C352.856 183.595 352.571 182.838 352.049 182.256C351.478 181.726 350.653 181.59 349.879 181.558C347.973 181.474 345.944 181.929 344.592 183.273C344.229 183.635 343.918 184.07 343.543 184.397C343.169 184.724 342.658 184.82 342.905 185.25C343.153 185.681 343.639 185.948 343.902 186.327C344.169 186.735 344.402 187.165 344.6 187.61V187.61Z"
                    fill="#FBBEBE"
                  />
                  <path
                    d="M360.841 199.209C360.338 202.279 359.52 205.289 358.401 208.192C357.838 209.503 357.358 210.848 356.965 212.219C356.658 213.455 356.718 214.779 356.435 216.019C356.084 217.562 355.733 219.109 355.45 220.664C354.975 223.038 354.785 225.461 354.884 227.881C354.885 228.262 354.958 228.639 355.099 228.993C355.231 229.28 355.442 229.527 355.565 229.822C355.658 230.081 355.696 230.357 355.677 230.631C355.657 230.906 355.581 231.173 355.454 231.417C355.249 231.874 354.972 232.294 354.632 232.661C350.916 233.77 346.941 233.407 343.069 233.642C339.5 233.857 335.892 234.591 332.375 233.981C331.976 232.386 332.642 230.715 333.212 229.16C334.867 224.643 336.697 219.938 336.402 215.205C336.371 214.653 336.308 214.104 336.215 213.559C335.636 210.206 336.266 206.733 337.275 203.483C337.901 201.458 337.873 199.301 337.73 197.192C337.659 196.507 337.649 195.817 337.702 195.13C337.76 194.429 338.02 193.76 338.452 193.204C338.452 193.177 338.487 193.149 338.507 193.121C338.527 193.093 338.683 193.097 338.806 193.121C338.838 193.134 338.872 193.141 338.906 193.141C338.94 193.141 338.974 193.134 339.006 193.121L339.05 193.093C339.067 193.081 339.087 193.074 339.107 193.074C339.128 193.074 339.148 193.081 339.165 193.093C339.257 193.149 339.309 193.34 339.508 193.376C339.803 193.42 340.1 193.448 340.397 193.46C340.755 193.47 341.111 193.521 341.458 193.611H341.506C342.024 193.699 342.557 193.653 343.053 193.48C343.383 193.397 343.702 193.274 344.002 193.113C344.09 193.017 344.64 192.929 344.752 192.862C345.114 192.642 345.035 191.614 345.11 191.191C345.152 190.767 345.253 190.351 345.41 189.955C345.591 189.663 345.842 189.419 346.139 189.246C346.437 189.073 346.772 188.975 347.116 188.962C347.803 188.946 348.489 189.007 349.162 189.146C350.649 189.357 352.172 189.321 353.632 189.664C354.365 189.835 355.167 190.094 355.841 189.76C356.024 189.803 356.052 189.963 356.052 190.158C356.035 190.344 355.997 190.527 355.94 190.705C355.685 191.805 356.55 192.818 357.348 193.615C357.685 193.991 358.082 194.308 358.524 194.552C358.923 194.735 359.322 194.811 359.72 195.011C360.043 195.183 360.318 195.434 360.518 195.74C360.748 196.092 360.902 196.487 360.972 196.9C361.058 197.672 361.014 198.452 360.841 199.209Z"
                    fill="#38364E"
                  />
                  <path
                    opacity="0.1"
                    d="M360.841 199.209C360.338 202.279 359.52 205.289 358.401 208.192C357.838 209.503 357.358 210.848 356.965 212.219C356.658 213.455 356.718 214.779 356.435 216.019C356.084 217.562 355.733 219.109 355.45 220.664C355.366 220.712 355.278 220.756 355.191 220.795C354.695 221.032 354.169 221.201 353.628 221.298C352.656 221.415 351.671 221.383 350.709 221.202L345.019 220.441C342.746 220.134 340.326 219.763 338.639 218.224C337.702 217.378 337.088 216.262 336.414 215.185C336.383 214.633 336.32 214.084 336.227 213.539C335.648 210.186 336.278 206.713 337.287 203.463C337.913 201.438 337.885 199.281 337.742 197.172C337.671 196.487 337.661 195.797 337.714 195.11C337.772 194.409 338.032 193.74 338.463 193.184C338.58 193.15 338.698 193.124 338.818 193.105V193.105C338.899 193.089 338.98 193.078 339.062 193.073H339.177C339.312 193.073 339.445 193.089 339.576 193.121C339.848 193.207 340.114 193.31 340.373 193.428H340.421C340.763 193.54 341.122 193.592 341.482 193.579C342.008 193.579 342.551 193.495 343.077 193.46C343.727 193.358 344.393 193.477 344.967 193.799C345.338 194.096 345.689 194.417 346.02 194.759C346.419 195.073 346.867 195.317 347.347 195.481C350.78 196.791 354.588 196.711 357.962 195.258C358.286 195.074 358.654 194.98 359.027 194.987C359.302 195.041 359.563 195.152 359.792 195.314C360.031 195.453 360.267 195.589 360.51 195.712C360.74 196.064 360.894 196.459 360.964 196.873C361.056 197.653 361.014 198.443 360.841 199.209V199.209Z"
                    fill="black"
                  />
                  <path
                    d="M364.314 196.57C362.726 196.085 361.2 195.416 359.768 194.576C359.538 194.415 359.278 194.304 359.003 194.249C358.629 194.245 358.26 194.338 357.934 194.52C354.561 195.973 350.755 196.053 347.324 194.743C346.844 194.578 346.396 194.334 345.996 194.022C345.664 193.681 345.313 193.36 344.943 193.061C343.631 192.212 341.817 193.208 340.35 192.662C340.089 192.546 339.823 192.443 339.552 192.355C338.392 192.064 337.211 193.22 336.071 192.87C335.647 194.023 335.333 195.214 335.134 196.426C334.972 197.818 334.885 199.219 334.875 200.621C334.875 201.462 334.835 202.303 334.875 203.144C335.015 203.167 335.15 203.219 335.269 203.297C335.388 203.374 335.49 203.476 335.569 203.595C335.621 203.734 335.642 203.883 335.631 204.031C335.62 204.179 335.577 204.322 335.505 204.452C334.671 206.593 333.826 208.758 332.562 210.676C333.453 211.207 334.28 211.838 335.026 212.558C336.422 214.033 337.108 216.103 338.615 217.466C340.314 219.001 342.734 219.376 344.995 219.679L350.685 220.441C351.649 220.621 352.634 220.654 353.608 220.54C354.148 220.442 354.672 220.271 355.167 220.034C355.49 219.899 355.785 219.704 356.036 219.46C356.246 219.221 356.42 218.952 356.55 218.662C357.001 217.761 357.412 216.84 357.79 215.907C357.922 215.576 358.121 215.189 358.48 215.162C360.594 213.256 362.587 211.302 364.701 209.396C365.55 208.692 366.312 207.889 366.969 207.004C368.018 205.453 367.065 203.256 366.969 201.382C366.958 200.903 366.898 200.426 366.79 199.959C366.447 198.599 365.642 196.972 364.314 196.57Z"
                    fill="#aed581 "
                  />
                  <path
                    opacity="0.1"
                    d="M330.461 188.591C330.142 189.229 329.376 189.536 328.786 189.939L326.764 191.326C326.629 191.448 326.471 191.541 326.299 191.6C326.127 191.659 325.945 191.683 325.764 191.669C325.599 191.609 325.448 191.516 325.32 191.396C325.192 191.276 325.089 191.132 325.018 190.972C325.018 190.88 325.018 190.78 325.018 190.685C325.003 190.362 325.046 190.039 325.146 189.732C325.343 189.281 325.65 188.886 326.039 188.583C326.789 187.873 327.682 187.329 328.658 186.989C328.811 186.929 328.976 186.913 329.137 186.941C329.199 186.957 329.258 186.982 329.312 187.016C329.455 187.172 329.576 187.346 329.671 187.535C329.831 187.862 330.624 188.264 330.461 188.591Z"
                    fill="black"
                  />
                  <path
                    d="M335.222 192.794C334.544 192.762 333.99 192.271 333.495 191.805L331.984 190.401C331.883 190.316 331.794 190.217 331.721 190.106C331.639 189.951 331.577 189.787 331.537 189.616C331.217 188.811 330.715 188.09 330.07 187.511C329.958 187.368 329.807 187.26 329.635 187.2C329.473 187.17 329.306 187.187 329.153 187.248C328.176 187.588 327.283 188.131 326.533 188.843C326.145 189.146 325.838 189.54 325.64 189.991C325.54 190.298 325.496 190.621 325.512 190.944C325.522 191.997 325.758 193.036 326.206 193.99C326.274 194.137 326.35 194.285 326.429 194.428C326.962 195.308 327.59 196.125 328.304 196.865L329.253 197.925C330.186 198.97 331.119 200.014 332.131 200.975C332.495 201.363 332.935 201.67 333.423 201.876C333.669 201.977 333.937 202.007 334.199 201.965C334.46 201.923 334.705 201.809 334.907 201.637C335.098 201.416 335.242 201.158 335.329 200.88C335.943 199.285 336.526 197.626 336.561 195.908C336.57 195.22 336.541 194.531 336.474 193.846C336.414 193.121 335.9 192.838 335.222 192.794Z"
                    fill="#aed581 "
                  />
                  <path
                    d="M359.385 248.614C359.362 252.624 359.077 256.629 358.532 260.603C358.452 261.245 358.365 261.887 358.321 262.529C358.189 264.391 358.405 266.261 358.229 268.111C358.137 269.111 357.93 270.104 357.755 271.081C356.975 275.441 356.748 279.882 357.077 284.298C357.627 291.647 355.94 298.999 356.706 306.327C356.799 307.752 356.72 309.183 356.471 310.59C356.328 311.462 356.121 312.323 355.853 313.165C355.27 315.162 354.686 317.155 354.098 319.146C354.029 319.449 353.893 319.732 353.699 319.975C353.496 320.151 353.257 320.282 353 320.358C352.742 320.434 352.471 320.455 352.204 320.418C349.903 320.346 347.738 319.353 345.649 318.384C345.409 318.29 345.186 318.155 344.991 317.986C344.556 317.535 344.592 316.826 344.401 316.231C344.209 315.637 343.691 315.079 343.396 314.469C343.153 313.892 343.007 313.279 342.961 312.655C342.695 310.614 342.515 308.564 342.419 306.507C342.267 303.612 344.181 300.949 344.811 298.134C346.008 292.6 344.995 286.667 347.12 281.416C347.79 279.757 346.817 277.748 346.721 275.961C346.687 274.809 346.537 273.663 346.275 272.54C345.876 271.041 345.035 269.63 344.975 268.075C344.931 266.95 345.294 265.854 345.481 264.746C345.73 263.114 345.707 261.453 345.414 259.829C345.202 258.49 344.879 257.15 344.556 255.842L344.485 255.99C343.513 257.889 342.677 259.854 341.984 261.871C341.665 262.848 341.386 263.844 340.988 264.793C340.661 265.591 340.258 266.32 339.863 267.07C338.447 269.713 337.215 272.451 336.175 275.264C335.68 276.643 335.246 278.055 334.815 279.438L331.86 289.007C331.063 291.523 330.19 293.955 329.408 296.467C328.304 300.056 327.199 303.612 325.915 307.121C324.719 310.45 323.295 313.899 323.722 317.416C322.623 317.932 321.415 318.177 320.201 318.129C318.146 317.948 316.13 317.458 314.22 316.678C313.458 316.395 312.669 316.076 312.155 315.45C311.269 314.369 311.489 312.787 311.756 311.411C311.856 310.791 312.017 310.182 312.234 309.593C312.537 308.859 313.032 308.209 313.343 307.484C313.969 306.092 314.009 304.517 314.256 303.006C314.503 301.495 315.053 299.9 316.345 299.079C316.565 296.423 317.657 293.804 318.259 291.208C318.714 289.243 318.865 287.221 319.224 285.227C319.583 283.234 320.161 281.24 321.365 279.626C321.27 277.96 321.646 276.302 322.45 274.841C322.644 274.52 322.803 274.179 322.925 273.824C322.999 273.478 323.042 273.126 323.052 272.772C323.184 271.386 323.776 270.085 324.735 269.076C324.336 267.62 324.89 266.101 325.389 264.69C326.017 262.889 326.301 260.986 326.226 259.08C326.164 258.548 326.19 258.009 326.302 257.485C326.414 257.086 326.633 256.747 326.76 256.365C326.874 255.896 326.934 255.416 326.94 254.933C327.095 252.776 327.969 250.743 328.934 248.817C329.508 247.693 329.021 246.165 329.141 244.914C329.348 242.832 329.576 240.679 330.608 238.865C330.8 238.522 331.007 238.195 331.178 237.84C331.386 237.334 331.498 236.793 331.509 236.246C331.545 235.332 331.673 234.575 331.346 233.726C333.479 231.951 336.39 231.453 339.165 231.333C341.941 231.214 344.748 231.465 347.463 230.875C348.261 230.695 349.058 230.448 349.899 230.329C351.809 230.05 353.747 230.484 355.633 230.915C355.502 232.111 355.94 233.259 356.431 234.372C358.346 238.878 359.35 243.718 359.385 248.614V248.614Z"
                    fill="#33313F"
                  />
                  <path
                    opacity="0.1"
                    d="M349.995 249.527L345.414 259.829C345.202 258.49 344.879 257.15 344.556 255.842L344.484 255.99V255.775L346.981 250.284L349.995 249.527Z"
                    fill="black"
                  />
                  <path
                    opacity="0.1"
                    d="M363.724 228.004C363.459 228.202 363.144 228.319 362.815 228.343C362.31 228.361 361.805 228.292 361.323 228.14L357.735 227.243C357.622 227.215 357.513 227.176 357.408 227.127C357.467 226.501 357.587 225.775 357.926 225.532C358.432 225.193 359.948 225.648 360.522 225.727C361.511 225.863 362.516 226.023 363.48 226.21C363.63 226.797 363.712 227.399 363.724 228.004V228.004Z"
                    fill="black"
                  />
                  <path
                    d="M366.758 204.281C366.834 204.612 366.942 204.939 367.005 205.273C367.113 206.095 367.084 206.929 366.922 207.742L366.595 210.022L366.268 212.315L365.004 221.138L364.693 223.323L364.254 226.373C364.233 226.627 364.169 226.875 364.063 227.107C363.932 227.324 363.75 227.505 363.532 227.633C363.314 227.762 363.067 227.835 362.815 227.845C362.31 227.861 361.806 227.792 361.323 227.641L357.735 226.74C357.577 226.712 357.428 226.651 357.296 226.561C357.186 226.454 357.107 226.319 357.067 226.171C357.026 226.024 357.025 225.868 357.065 225.72C357.117 225.416 357.248 225.133 357.292 224.83C357.38 224.24 357.133 223.634 357.22 223.048C357.306 222.675 357.44 222.314 357.619 221.976C358.815 219.332 358.121 216.246 358.528 213.375C358.894 211.116 359.849 208.993 361.295 207.219C362.188 206.1 363.214 205.093 364.35 204.221C364.796 203.874 365.506 203.16 366.068 203.025C366.79 202.873 366.639 203.778 366.758 204.281Z"
                    fill="#aed581 "
                  />
                  <path
                    d="M339.6 169.936C339.337 170.773 339.747 171.694 339.56 172.547C339.357 173.488 338.471 174.142 338.22 175.087C337.822 176.526 339.042 177.838 339.935 179.034C343.244 183.476 342.81 189.624 341.677 195.043C340.766 199.39 339.506 203.657 337.909 207.801C337.411 209.089 336.861 210.397 335.88 211.362C337.714 210.836 339.664 210.305 341.502 210.816C343.831 211.462 345.84 213.722 348.201 213.208C349.62 212.893 350.617 211.633 351.893 210.935C354.286 209.647 357.168 210.457 359.836 210.871C360.411 211.007 361.012 210.977 361.571 210.784C361.997 210.554 362.359 210.221 362.623 209.815C363.814 208.288 364.527 206.443 364.673 204.512C364.736 203.55 364.594 202.587 364.256 201.684C363.919 200.782 363.393 199.961 362.715 199.277C362.149 198.743 361.471 198.312 361.036 197.682C360.613 196.946 360.387 196.114 360.378 195.266C360.063 190.88 361.132 186.402 360.031 182.16C359.633 180.649 358.983 179.202 358.807 177.655C358.588 175.729 359.11 173.667 358.345 171.905C357.743 170.506 356.415 169.513 354.983 169.003C353.552 168.492 352.021 168.349 350.501 168.205C348.316 168.022 340.513 167.085 339.6 169.936Z"
                    fill="#33313F"
                  />
                  <g opacity="0.1">
                    <path
                      opacity="0.1"
                      d="M341.677 195.043C340.771 199.372 339.517 203.621 337.929 207.749C338.204 207.203 338.436 206.629 338.655 206.059C340.253 201.915 341.514 197.648 342.423 193.3C343.559 187.878 343.994 181.737 340.684 177.292C339.887 176.231 338.862 175.083 338.898 173.839C338.603 174.215 338.374 174.638 338.22 175.091C337.822 176.53 339.042 177.842 339.935 179.038C343.244 183.476 342.81 189.624 341.677 195.043Z"
                      fill="black"
                    />
                    <path
                      opacity="0.1"
                      d="M339.608 172.144C339.928 171.747 340.166 171.29 340.31 170.801C340.371 170.208 340.355 169.611 340.262 169.022C339.955 169.254 339.724 169.572 339.6 169.936C339.365 170.641 339.636 171.407 339.608 172.144Z"
                      fill="black"
                    />
                    <path
                      opacity="0.1"
                      d="M363.373 208.06C363.109 208.466 362.747 208.798 362.32 209.025C361.763 209.222 361.16 209.253 360.586 209.113C357.918 208.714 355.003 207.893 352.643 209.181C351.363 209.875 350.37 211.135 348.946 211.454C346.59 211.98 344.58 209.719 342.252 209.061C340.601 208.603 338.862 208.982 337.199 209.46C336.869 210.165 336.423 210.809 335.88 211.366C337.714 210.84 339.664 210.309 341.502 210.82C343.831 211.466 345.84 213.726 348.201 213.212C349.62 212.897 350.617 211.637 351.893 210.939C354.286 209.651 357.168 210.461 359.836 210.875C360.411 211.011 361.012 210.981 361.571 210.788C361.997 210.558 362.359 210.225 362.623 209.819C363.346 208.866 363.904 207.798 364.274 206.661C364.008 207.148 363.706 207.616 363.373 208.06Z"
                      fill="black"
                    />
                  </g>
                </g>
                <defs>
                  <linearGradient
                    id="paint0_linear"
                    x1="306.472"
                    y1="244.18"
                    x2="367.48"
                    y2="244.18"
                    gradientUnits="userSpaceOnUse"
                  >
                    <stop stop-color="#808080" stop-opacity="0.25" />
                    <stop
                      offset="0.54"
                      stop-color="#808080"
                      stop-opacity="0.12"
                    />
                    <stop offset="1" stop-color="#808080" stop-opacity="0.1" />
                  </linearGradient>
                  <clipPath id="clip0">
                    <rect width="465" height="321" fill="white" />
                  </clipPath>
                </defs>
              </svg>